<?xml version="1.0" encoding="utf-8"?>
<!-- Generator: Adobe Illustrator 16.0.3, SVG Export Plug-In . SVG Version: 6.00 Build 0)  -->
<!DOCTYPE svg PUBLIC "-//W3C//DTD SVG 1.1//EN" "http://www.w3.org/Graphics/SVG/1.1/DTD/svg11.dtd">
<svg version="1.1" id="Layer_1" xmlns="http://www.w3.org/2000/svg" xmlns:xlink="http://www.w3.org/1999/xlink" x="0px" y="0px"
	 width="595.281px" height="595.279px" viewBox="0 0 595.281 595.279" enable-background="new 0 0 595.281 595.279"
	 xml:space="preserve">
<g id="iconcol">
	<path fill="#26B78A" d="M0,119.056v357.168c0,65.753,53.304,119.056,119.056,119.056h357.168
		c65.754,0,119.057-53.303,119.057-119.056V119.056C595.281,53.303,541.978,0,476.224,0H119.056C53.304,0,0,53.303,0,119.056z"/>
</g>
<path fill="#FFFFFF" d="M484.446,185.119l-30.266-30.265c-4.402-4.4-9.632-6.602-15.686-6.602c-6.048,0-11.282,2.201-15.681,6.602
	l-178,178l-72.351-72.355c-4.402-4.404-9.632-6.602-15.682-6.602c-6.052,0-11.278,2.198-15.683,6.602l-30.261,30.262
	c-4.402,4.4-6.604,9.63-6.604,15.684c0,6.052,2.202,11.278,6.604,15.682l118.298,118.299c4.402,4.402,9.631,6.602,15.682,6.602
	c6.05,0,11.278-2.196,15.681-6.602l223.943-223.942c4.399-4.401,6.605-9.63,6.605-15.682
	C491.047,194.749,488.847,189.521,484.446,185.119z"/>
</svg>
